<svg xmlns="http://www.w3.org/2000/svg" viewBox="0 0 700 900">
  <defs>
    <linearGradient id="bg" x1="0" x2="1" y1="0" y2="1">
      <stop stop-color="#dbeafe"/>
      <stop offset="1" stop-color="#bfdbfe"/>
    </linearGradient>
  </defs>

  <rect width="700" height="900" fill="url(#bg)"/>

  <circle cx="560" cy="170" r="140" fill="#ffffff" opacity=".35"/>
  <circle cx="130" cy="700" r="170" fill="#ffffff" opacity=".25"/>

  <rect x="370" y="220" width="190" height="390" rx="70" fill="#93c5fd"/>
  <circle cx="465" cy="160" r="75" fill="#f8fafc"/>

  <rect x="345" y="520" width="220" height="250" rx="28" fill="#0754d8"/>
  <path d="M375 530c20-85 145-85 165 0" fill="none" stroke="#facc15" stroke-width="22"/>

  <circle cx="420" cy="650" r="28" fill="#facc15"/>
  <circle cx="500" cy="650" r="28" fill="#facc15"/>

  <path d="M445 640v100M475 640v100M400 690h120" stroke="#facc15" stroke-width="18" stroke-linecap="round"/>

  <rect x="110" y="610" width="160" height="190" rx="24" fill="#ffffff"/>
  <rect x="135" y="640" width="110" height="20" rx="10" fill="#60a5fa"/>
  <rect x="135" y="680" width="90" height="18" rx="9" fill="#cbd5e1"/>
  <rect x="135" y="715" width="70" height="18" rx="9" fill="#cbd5e1"/>
</svg>
